<?xml version="1.0" encoding="UTF-8" standalone="no"?>
<svg
   xmlns:dc="http://purl.org/dc/elements/1.1/"
   xmlns:cc="http://creativecommons.org/ns#"
   xmlns:rdf="http://www.w3.org/1999/02/22-rdf-syntax-ns#"
   xmlns:svg="http://www.w3.org/2000/svg"
   xmlns="http://www.w3.org/2000/svg"
   xmlns:sodipodi="http://sodipodi.sourceforge.net/DTD/sodipodi-0.dtd"
   xmlns:inkscape="http://www.inkscape.org/namespaces/inkscape"
   inkscape:version="1.0 (4035a4fb49, 2020-05-01)"
   inkscape:export-ydpi="90"
   inkscape:export-xdpi="90"
   inkscape:export-filename="C:\Users\Pichau\Desktop\logo2.png"
   sodipodi:docname="logo.svg"
   id="svg28"
   version="1.1"
   fill="none"
   viewBox="0 0 192 44"
   height="44"
   width="192">
  <metadata
     id="metadata34">
    <rdf:RDF>
      <cc:Work
         rdf:about="">
        <dc:format>image/svg+xml</dc:format>
        <dc:type
           rdf:resource="http://purl.org/dc/dcmitype/StillImage" />
        <dc:title></dc:title>
      </cc:Work>
    </rdf:RDF>
  </metadata>
  <defs
     id="defs32" />
  <sodipodi:namedview
     inkscape:current-layer="svg28"
     inkscape:window-maximized="1"
     inkscape:window-y="-8"
     inkscape:window-x="-8"
     inkscape:cy="42.154799"
     inkscape:cx="69.598193"
     inkscape:zoom="8"
     showgrid="false"
     id="namedview30"
     inkscape:window-height="1012"
     inkscape:window-width="2560"
     inkscape:pageshadow="2"
     inkscape:pageopacity="0"
     guidetolerance="10"
     gridtolerance="10"
     objecttolerance="10"
     borderopacity="1"
     bordercolor="#666666"
     pagecolor="#ffffff" />
  <rect
     y="0"
     x="0"
     height="44"
     width="192"
     id="rect859"
     style="fill:#2d4a22;fill-opacity:1;stroke-width:0.965133;stroke-linecap:round;stroke-linejoin:round" />
  <path
     id="path2"
     fill="#ffffff"
     d="m 10,23.6625 c 0,-1.5304 0.304832,-2.8855 0.914497,-4.06557 0.627593,-1.18003 1.470363,-2.0927 2.528313,-2.73803 1.07588,-0.66377 2.26831,-0.99565 3.5773,-0.99565 0.96829,0 1.91865,0.22126 2.85107,0.66377 0.95032,0.42407 1.70352,0.99564 2.25932,1.71472 v -7.356721 h 3.0932 V 31.3511 h -3.0932 v -2.2955 c -0.502,0.7375 -1.2014,1.3459 -2.0979,1.8253 -0.87867,0.4794 -1.89179,0.7191 -3.03939,0.7191 -1.29105,0 -2.47452,-0.3319 -3.5504,-0.9956 -1.05795,-0.6822 -1.90072,-1.6226 -2.528313,-2.821 C 10.304832,26.5665 10,25.1928 10,23.6625 Z m 12.1305,0.0553 c 0,-1.051 -0.2151,-1.9636 -0.6455,-2.738 -0.4124,-0.7744 -0.9593,-1.36443 -1.64071,-1.77007 -0.68139,-0.40563 -1.41658,-0.60845 -2.20555,-0.60845 -0.78898,0 -1.52416,0.20282 -2.20555,0.60845 -0.68139,0.3872 -1.23726,0.96797 -1.66762,1.74237 -0.41242,0.756 -0.61863,1.6594 -0.61863,2.7104 0,1.0509 0.20621,1.9728 0.61863,2.7657 0.43036,0.7928 0.98623,1.4012 1.66762,1.8253 0.69932,0.4057 1.4345,0.6085 2.20555,0.6085 0.78897,0 1.52416,-0.2028 2.20555,-0.6085 0.68141,-0.4056 1.22831,-0.9956 1.64071,-1.77 0.4304,-0.7928 0.6455,-1.7147 0.6455,-2.7657 z" />
  <path
     id="path4"
     fill="#ffffff"
     d="m 42.834,23.3583 c 0,0.5715 -0.0358,1.0878 -0.1075,1.5487 H 31.4028 c 0.0897,1.2169 0.529,2.1942 1.318,2.9317 0.789,0.7375 1.7573,1.1062 2.9049,1.1062 1.6496,0 2.8152,-0.7098 3.4966,-2.1295 h 3.3083 c -0.4483,1.4012 -1.2642,2.5536 -2.4476,3.4571 -1.1656,0.885 -2.618,1.3275 -4.3573,1.3275 -1.4166,0 -2.6897,-0.3227 -3.8194,-0.968 -1.1118,-0.6638 -1.9904,-1.5856 -2.6359,-2.7657 -0.6276,-1.1984 -0.9414,-2.5813 -0.9414,-4.1485 0,-1.5672 0.3048,-2.9408 0.9145,-4.12087 0.6276,-1.19847 1.4973,-2.12036 2.609,-2.76569 1.1297,-0.64532 2.4207,-0.96799 3.8732,-0.96799 1.3986,0 2.6448,0.31345 3.7386,0.94033 1.0938,0.62689 1.9456,1.51191 2.5552,2.65506 0.6097,1.12476 0.9145,2.42456 0.9145,3.89966 z m -3.2007,-0.9957 c -0.0179,-1.1616 -0.4214,-2.0927 -1.2104,-2.79333 -0.7889,-0.70064 -1.7662,-1.05096 -2.9317,-1.05096 -1.058,0 -1.9635,0.35032 -2.7166,1.05096 -0.7531,0.68223 -1.2014,1.61333 -1.3449,2.79333 z" />
  <path
     id="path6"
     fill="#ffffff"
     d="M 51.5806,28.5301 55.7765,16.11216 H 59.031 L 53.3827,31.3511 h -3.658 L 44.1032,16.11216 h 3.2815 z" />
  <path
     id="path8"
     fill="#ffffff"
     d="m 62.5861,31.5447 c -0.5559,0 -1.0221,-0.1936 -1.3987,-0.5808 -0.3765,-0.3872 -0.5648,-0.8666 -0.5648,-1.4382 0,-0.5715 0.1883,-1.0509 0.5648,-1.4381 0.3766,-0.3872 0.8428,-0.5808 1.3987,-0.5808 0.5379,0 0.9952,0.1936 1.3717,0.5808 0.3766,0.3872 0.5648,0.8666 0.5648,1.4381 0,0.5716 -0.1882,1.051 -0.5648,1.4382 -0.3765,0.3872 -0.8338,0.5808 -1.3717,0.5808 z" />
  <path
     id="path10"
     fill="#ffffff"
     d="M 74.0498,18.68425 H 71.3064 V 31.3511 H 68.2132 V 18.68425 h -1.7483 v -2.57209 h 1.7483 v -1.07861 c 0,-1.75161 0.4483,-3.02382 1.3449,-3.81665 C 70.4726,10.405633 71.8981,10 73.8347,10 v 2.6274 c -0.9325,0 -1.5869,0.18438 -1.9635,0.55314 -0.3766,0.35032 -0.5648,0.96799 -0.5648,1.85301 v 1.07861 h 2.7434 z" />
  <path
     id="path12"
     fill="#ffffff"
     d="m 78.3273,14.09321 c -0.5559,0 -1.0221,-0.19359 -1.3986,-0.58079 -0.3766,-0.3872 -0.5649,-0.86658 -0.5649,-1.43816 0,-0.57157 0.1883,-1.05096 0.5649,-1.438152 0.3765,-0.387197 0.8427,-0.580795 1.3986,-0.580795 0.5379,0 0.9952,0.193598 1.3718,0.580795 0.3765,0.387192 0.5648,0.866582 0.5648,1.438152 0,0.57158 -0.1883,1.05096 -0.5648,1.43816 -0.3766,0.3872 -0.8339,0.58079 -1.3718,0.58079 z m 1.5062,2.01895 V 31.3511 H 76.7673 V 16.11216 Z" />
  <path
     id="path14"
     fill="#ffffff"
     d="m 91.3366,15.86325 c 1.1655,0 2.2056,0.24891 3.12,0.74674 0.9325,0.49782 1.6587,1.23534 2.1787,2.21255 0.52,0.9772 0.78,2.15726 0.78,3.54006 v 8.9885 H 94.376 v -8.5183 c 0,-1.3644 -0.3318,-2.4062 -0.9952,-3.12525 -0.6635,-0.73751 -1.569,-1.10627 -2.7166,-1.10627 -1.1476,0 -2.0621,0.36876 -2.7435,1.10627 -0.6635,0.71905 -0.9952,1.76085 -0.9952,3.12525 v 8.5183 H 83.8593 V 16.11216 h 3.0662 v 1.74239 c 0.5021,-0.62689 1.1386,-1.1155 1.9097,-1.46582 0.789,-0.35032 1.6228,-0.52548 2.5014,-0.52548 z" />
  <path
     id="path16"
     fill="#ffffff"
     d="m 100.3044,23.6625 c 0,-1.5304 0.3049,-2.8855 0.9145,-4.06557 0.6276,-1.18003 1.4704,-2.0927 2.5283,-2.73803 1.0759,-0.66377 2.2594,-0.99565 3.5504,-0.99565 1.1656,0 2.1787,0.2397 3.0394,0.71908 0.879,0.46095 1.578,1.04174 2.098,1.74238 v -2.21255 h 3.093 V 31.3511 h -3.093 v -2.2679 c -0.52,0.7191 -1.228,1.3183 -2.125,1.7977 -0.8965,0.4794 -1.9186,0.7191 -3.0662,0.7191 -1.2731,0 -2.4386,-0.3319 -3.4966,-0.9956 -1.0579,-0.6822 -1.9007,-1.6226 -2.5283,-2.821 -0.6096,-1.2169 -0.9145,-2.5906 -0.9145,-4.1209 z m 12.1306,0.0553 c 0,-1.051 -0.215,-1.9636 -0.646,-2.738 -0.412,-0.7744 -0.959,-1.36443 -1.64,-1.77007 -0.6817,-0.40563 -1.4169,-0.60845 -2.2058,-0.60845 -0.789,0 -1.5242,0.20282 -2.2056,0.60845 -0.6814,0.3872 -1.2372,0.96797 -1.6676,1.74237 -0.4124,0.756 -0.6186,1.6594 -0.6186,2.7104 0,1.0509 0.2062,1.9728 0.6186,2.7657 0.4304,0.7928 0.9862,1.4012 1.6676,1.8253 0.6993,0.4057 1.4345,0.6085 2.2056,0.6085 0.7889,0 1.5241,-0.2028 2.2058,-0.6085 0.681,-0.4056 1.228,-0.9956 1.64,-1.77 0.431,-0.7928 0.646,-1.7147 0.646,-2.7657 z" />
  <path
     id="path18"
     fill="#ffffff"
     d="m 127.033,15.86325 c 1.165,0 2.205,0.24891 3.12,0.74674 0.932,0.49782 1.659,1.23534 2.179,2.21255 0.52,0.9772 0.78,2.15726 0.78,3.54006 v 8.9885 h -3.04 v -8.5183 c 0,-1.3644 -0.332,-2.4062 -0.995,-3.12525 -0.663,-0.73751 -1.569,-1.10627 -2.717,-1.10627 -1.147,0 -2.062,0.36876 -2.743,1.10627 -0.664,0.71905 -0.995,1.76085 -0.995,3.12525 v 8.5183 h -3.066 V 16.11216 h 3.066 v 1.74239 c 0.502,-0.62689 1.138,-1.1155 1.909,-1.46582 0.789,-0.35032 1.623,-0.52548 2.502,-0.52548 z" />
  <path
     id="path20"
     fill="#ffffff"
     d="m 136.001,23.7178 c 0,-1.5672 0.305,-2.9408 0.914,-4.12087 0.628,-1.19847 1.488,-2.12036 2.582,-2.76569 1.094,-0.64532 2.349,-0.96799 3.766,-0.96799 1.793,0 3.272,0.44251 4.438,1.32753 1.183,0.86658 1.981,2.11114 2.394,3.73372 h -3.309 c -0.269,-0.756 -0.699,-1.34601 -1.291,-1.77008 -0.591,-0.42407 -1.336,-0.63611 -2.232,-0.63611 -1.255,0 -2.259,0.46095 -3.013,1.38284 -0.735,0.90345 -1.102,2.17565 -1.102,3.81665 0,1.641 0.367,2.9224 1.102,3.8443 0.754,0.9219 1.758,1.3828 3.013,1.3828 1.775,0 2.95,-0.802 3.523,-2.4061 h 3.309 c -0.431,1.5488 -1.238,2.7841 -2.421,3.706 -1.184,0.9035 -2.654,1.3552 -4.411,1.3552 -1.417,0 -2.672,-0.3227 -3.766,-0.968 -1.094,-0.6638 -1.954,-1.5856 -2.582,-2.7657 -0.609,-1.1984 -0.914,-2.5813 -0.914,-4.1485 z" />
  <path
     id="path22"
     fill="#ffffff"
     d="m 166.733,23.3583 c 0,0.5715 -0.035,1.0878 -0.107,1.5487 h -11.324 c 0.09,1.2169 0.529,2.1942 1.318,2.9317 0.789,0.7375 1.757,1.1062 2.905,1.1062 1.65,0 2.815,-0.7098 3.497,-2.1295 h 3.308 c -0.448,1.4012 -1.264,2.5536 -2.448,3.4571 -1.165,0.885 -2.618,1.3275 -4.357,1.3275 -1.417,0 -2.69,-0.3227 -3.819,-0.968 -1.112,-0.6638 -1.991,-1.5856 -2.636,-2.7657 -0.628,-1.1984 -0.942,-2.5813 -0.942,-4.1485 0,-1.5672 0.305,-2.9408 0.915,-4.12087 0.627,-1.19847 1.497,-2.12036 2.609,-2.76569 1.13,-0.64532 2.421,-0.96799 3.873,-0.96799 1.399,0 2.645,0.31345 3.739,0.94033 1.094,0.62689 1.945,1.51191 2.555,2.65506 0.61,1.12476 0.914,2.42456 0.914,3.89966 z m -3.2,-0.9957 c -0.018,-1.1616 -0.422,-2.0927 -1.211,-2.79333 -0.789,-0.70064 -1.766,-1.05096 -2.931,-1.05096 -1.058,0 -1.964,0.35032 -2.717,1.05096 -0.753,0.68223 -1.201,1.61333 -1.345,2.79333 z" />
  <path
     id="path24"
     fill="#49aa26"
     d="m 62.5865,31.5447 c -0.5558,0 -1.0221,-0.1936 -1.3986,-0.5808 -0.3766,-0.3872 -0.5649,-0.8665 -0.5649,-1.4381 0,-0.5716 0.1883,-1.051 0.5649,-1.4382 0.3765,-0.3872 0.8428,-0.5808 1.3986,-0.5808 0.538,0 0.9952,0.1936 1.3718,0.5808 0.3765,0.3872 0.5648,0.8666 0.5648,1.4382 0,0.5716 -0.1883,1.0509 -0.5648,1.4381 -0.3766,0.3872 -0.8338,0.5808 -1.3718,0.5808 z" />
  <path
     id="path26"
     fill="#49aa26"
     d="m 181.999,27.325 c 0,0.7807 -0.226,1.5146 -0.678,2.2016 -0.435,0.687 -1.086,1.2648 -1.955,1.7332 -0.851,0.4684 -1.864,0.7495 -3.04,0.8432 v 1.8971 h -1.765 V 32.103 c -1.701,-0.1406 -3.076,-0.6012 -4.126,-1.3819 -1.05,-0.7807 -1.575,-1.8112 -1.575,-3.0916 h 3.312 c 0.055,0.6089 0.281,1.1164 0.679,1.5224 0.398,0.3903 0.968,0.6402 1.71,0.7495 v -5.1527 c -1.212,-0.2655 -2.199,-0.5309 -2.959,-0.7964 -0.76,-0.281 -1.411,-0.7182 -1.954,-1.3116 -0.525,-0.5933 -0.788,-1.4052 -0.788,-2.4358 0,-1.29596 0.525,-2.36554 1.575,-3.20871 1.05,-0.85878 2.425,-1.35843 4.126,-1.49896 V 13.6001 h 1.765 v 1.89713 c 1.592,0.12491 2.868,0.56211 3.827,1.31159 0.978,0.73387 1.53,1.7488 1.656,3.04478 h -3.312 c -0.054,-0.48404 -0.271,-0.91343 -0.651,-1.28817 -0.38,-0.39036 -0.887,-0.6558 -1.52,-0.79633 v 5.059 c 1.212,0.2498 2.198,0.5153 2.959,0.7963 0.76,0.2655 1.402,0.6949 1.927,1.2882 0.525,0.5777 0.787,1.3819 0.787,2.4124 z m -9.99,-7.2606 c 0,0.6402 0.218,1.1398 0.652,1.499 0.452,0.3591 1.086,0.6479 1.9,0.8665 v -4.73107 c -0.778,0.07808 -1.402,0.3201 -1.873,0.72607 -0.452,0.40597 -0.679,0.95247 -0.679,1.6395 z m 4.317,9.837 c 0.796,-0.1093 1.42,-0.3826 1.873,-0.8198 0.452,-0.4528 0.678,-0.9915 0.678,-1.6161 0,-0.6245 -0.226,-1.1086 -0.678,-1.4521 -0.435,-0.3591 -1.059,-0.648 -1.873,-0.8666 z" />
</svg>
